<?xml version="1.0" encoding="iso-8859-1"?>
<!-- Generator: Adobe Illustrator 19.0.0, SVG Export Plug-In . SVG Version: 6.00 Build 0)  -->
<svg xmlns="http://www.w3.org/2000/svg" xmlns:xlink="http://www.w3.org/1999/xlink" version="1.1" id="Capa_1" x="0px" y="0px" viewBox="0 0 511 511" style="enable-background:new 0 0 511 511;" xml:space="preserve" width="512px" height="512px">
<g>
	<path d="M367.5,451h16c4.142,0,7.5-3.358,7.5-7.5s-3.358-7.5-7.5-7.5h-16c-4.142,0-7.5,3.358-7.5,7.5S363.358,451,367.5,451z" fill="#006DF0"/>
	<path d="M503.5,172h-14.068L263,47.072V27.5c0-4.142-3.358-7.5-7.5-7.5s-7.5,3.358-7.5,7.5v19.572L21.568,172H7.5   c-4.142,0-7.5,3.358-7.5,7.5s3.358,7.5,7.5,7.5H16v24.5c0,4.142,3.358,7.5,7.5,7.5H248v185H47.5c-4.142,0-7.5,3.358-7.5,7.5   s3.358,7.5,7.5,7.5H56v57H31.5c-4.142,0-7.5,3.358-7.5,7.5s3.358,7.5,7.5,7.5h448c4.142,0,7.5-3.358,7.5-7.5s-3.358-7.5-7.5-7.5   H455v-57h8.5c4.142,0,7.5-3.358,7.5-7.5s-3.358-7.5-7.5-7.5H263V219h224.5c4.142,0,7.5-3.358,7.5-7.5V187h8.5   c4.142,0,7.5-3.358,7.5-7.5S507.642,172,503.5,172z M440,436h-24.5c-4.142,0-7.5,3.358-7.5,7.5s3.358,7.5,7.5,7.5H440v25H71v-25   h264.5c4.142,0,7.5-3.358,7.5-7.5s-3.358-7.5-7.5-7.5H71v-17h369V436z M31,204v-17h328.5c4.142,0,7.5-3.358,7.5-7.5   s-3.358-7.5-7.5-7.5H52.619L255.5,60.066L458.381,172h-66.879c-4.142,0-7.5,3.358-7.5,7.5s3.358,7.5,7.5,7.5H480v17H31z" fill="#006DF0"/>
</g>
<g>
</g>
<g>
</g>
<g>
</g>
<g>
</g>
<g>
</g>
<g>
</g>
<g>
</g>
<g>
</g>
<g>
</g>
<g>
</g>
<g>
</g>
<g>
</g>
<g>
</g>
<g>
</g>
<g>
</g>
</svg>
