<?xml version="1.0" encoding="iso-8859-1"?>
<!-- Generator: Adobe Illustrator 18.0.0, SVG Export Plug-In . SVG Version: 6.00 Build 0)  -->
<!DOCTYPE svg PUBLIC "-//W3C//DTD SVG 1.1//EN" "http://www.w3.org/Graphics/SVG/1.1/DTD/svg11.dtd">
<svg xmlns="http://www.w3.org/2000/svg" xmlns:xlink="http://www.w3.org/1999/xlink" version="1.1" id="Capa_1" x="0px" y="0px" viewBox="0 0 400.762 400.762" style="enable-background:new 0 0 400.762 400.762;" xml:space="preserve" width="512px" height="512px">
<g>
	<path d="M375.51,116.454c-6.792-4.866-15.151-6.264-23.105-3.916c-7.186-28.007-20.718-51.992-40.159-70.738   C284.292,14.845,244.784,0,201,0S117.708,14.845,89.754,41.8c-19.523,18.825-33.088,42.932-40.25,71.092l-0.077-0.026   c-8.271-2.805-17.081-1.497-24.175,3.588c-7.093,5.084-11.161,13.005-11.161,21.732v47.841c0,20.068,16.327,36.395,36.396,36.395   h0.979c7.551,27.706,20.376,53.107,37.857,74.377c10.825,13.171,22.964,24.178,36.058,32.868v65.594c0,3.038,2.463,5.5,5.5,5.5   s5.5-2.462,5.5-5.5v-58.958c20.043,10.906,41.957,16.649,64.62,16.649s44.577-5.743,64.62-16.649v58.958c0,3.038,2.463,5.5,5.5,5.5   s5.5-2.462,5.5-5.5v-65.594c13.093-8.69,25.233-19.696,36.058-32.868c17.482-21.272,30.309-46.676,37.859-74.384   c19.948-0.142,36.134-16.408,36.134-36.388v-47.841C386.671,129.459,382.603,121.538,375.51,116.454z M25.091,186.027v-47.841   c0-5.137,2.395-9.799,6.569-12.791c4.178-2.994,9.365-3.763,14.232-2.112l1.215,0.413c-2.339,12.302-3.535,25.294-3.535,38.896   c0,16.686,1.774,33.043,5.194,48.767C35.564,210.47,25.091,199.452,25.091,186.027z M201,341.953   c-80.74,0-146.427-80.461-146.427-179.362c0-46.833,14.806-85.863,42.815-112.872C123.282,24.75,160.079,11,201,11   s77.718,13.75,103.611,38.719c28.01,27.009,42.815,66.04,42.815,112.872C347.427,261.491,281.74,341.953,201,341.953z    M375.671,186.027c0,12.993-9.811,23.732-22.413,25.214c3.403-15.688,5.169-32.006,5.169-48.651   c0-13.746-1.219-26.872-3.608-39.291l0.049-0.017c4.87-1.651,10.056-0.882,14.233,2.112c4.175,2.992,6.569,7.654,6.569,12.791   V186.027z" fill="#006DF0"/>
	<path d="M290.697,86.634c-2.49-17.014-17.182-30.12-34.876-30.12h-15.874c-2.648-16.833-17.254-29.748-34.819-29.748h-10.334   c-17.564,0-32.17,12.916-34.818,29.748h-15.875c-17.694,0-32.385,13.106-34.875,30.12c-17.015,2.49-30.12,17.182-30.12,34.876   c0,19.436,15.813,35.248,35.248,35.248h99.484l-40.04,52.706c-1.264,1.664-1.476,3.9-0.547,5.771s2.837,3.056,4.927,3.056h31.782   l-46.076,77.752c-1.427,2.408-0.818,5.503,1.414,7.191c0.988,0.747,2.154,1.113,3.315,1.113c1.462,0,2.915-0.581,3.989-1.712   l100.931-106.242c1.515-1.594,1.935-3.937,1.066-5.958c-0.867-2.021-2.854-3.33-5.054-3.33h-23.645l31.19-30.347h8.478   c19.436,0,35.248-15.812,35.248-35.248C320.817,103.815,307.712,89.124,290.697,86.634z M228.526,188.662   c-1.604,1.561-2.104,3.938-1.261,6.012s2.857,3.43,5.096,3.43h24.373l-58.547,61.628l26.156-44.139   c1.008-1.7,1.025-3.81,0.047-5.527c-0.978-1.717-2.802-2.777-4.778-2.777h-30.349l38.389-50.533h33.666L228.526,188.662z    M285.569,145.757h-20.641v-2.999c0-9.27,7.542-16.811,16.812-16.811h6.374c3.037,0,5.5-2.462,5.5-5.5s-2.463-5.5-5.5-5.5h-39.719   c3.557-4.673,5.675-10.498,5.675-16.811c0-3.038-2.463-5.5-5.5-5.5s-5.5,2.462-5.5,5.5c0,9.27-7.541,16.811-16.811,16.811h-5.078   c-3.037,0-5.5,2.462-5.5,5.5s2.463,5.5,5.5,5.5h38.422c-3.558,4.673-5.675,10.498-5.675,16.811v2.999h-48.468v-36.025   c0-6.926,5.635-12.561,12.562-12.561h3.723c3.037,0,5.5-2.462,5.5-5.5s-2.463-5.5-5.5-5.5h-3.723   c-4.616,0-8.923,1.339-12.562,3.642V58.827c0-3.038-2.463-5.5-5.5-5.5s-5.5,2.462-5.5,5.5v30.986   c-3.639-2.303-7.945-3.642-12.561-3.642h-3.723c-3.037,0-5.5,2.462-5.5,5.5s2.463,5.5,5.5,5.5h3.723   c6.926,0,12.561,5.635,12.561,12.561v36.025h-48.468v-2.999c0-6.313-2.118-12.138-5.675-16.811h38.423c3.037,0,5.5-2.462,5.5-5.5   s-2.463-5.5-5.5-5.5h-5.078c-9.27,0-16.812-7.542-16.812-16.811c0-3.038-2.463-5.5-5.5-5.5s-5.5,2.462-5.5,5.5   c0,6.313,2.118,12.138,5.675,16.811h-39.719c-3.037,0-5.5,2.462-5.5,5.5s2.463,5.5,5.5,5.5h6.375   c9.27,0,16.811,7.542,16.811,16.811v2.999h-20.64c-13.37,0-24.248-10.877-24.248-24.248c0-13.371,10.878-24.248,24.248-24.248   h18.451c3.037,0,5.5-2.462,5.5-5.5s-2.463-5.5-5.5-5.5H120.49c2.499-10.729,12.132-18.748,23.61-18.748h15.446V77.95   c0,3.038,2.463,5.5,5.5,5.5s5.5-2.462,5.5-5.5V62.014c0-13.37,10.877-24.248,24.247-24.248h10.334   c13.37,0,24.248,10.878,24.248,24.248V77.95c0,3.038,2.463,5.5,5.5,5.5s5.5-2.462,5.5-5.5V67.514h15.445   c11.478,0,21.112,8.019,23.611,18.748h-12.314c-3.037,0-5.5,2.462-5.5,5.5s2.463,5.5,5.5,5.5h18.451   c13.37,0,24.248,10.877,24.248,24.248C309.817,134.88,298.939,145.757,285.569,145.757z" fill="#006DF0"/>
</g>
<g>
</g>
<g>
</g>
<g>
</g>
<g>
</g>
<g>
</g>
<g>
</g>
<g>
</g>
<g>
</g>
<g>
</g>
<g>
</g>
<g>
</g>
<g>
</g>
<g>
</g>
<g>
</g>
<g>
</g>
</svg>
