<?xml version="1.0" encoding="iso-8859-1"?>
<!-- Generator: Adobe Illustrator 16.0.0, SVG Export Plug-In . SVG Version: 6.00 Build 0)  -->
<!DOCTYPE svg PUBLIC "-//W3C//DTD SVG 1.1//EN" "http://www.w3.org/Graphics/SVG/1.1/DTD/svg11.dtd">
<svg xmlns="http://www.w3.org/2000/svg" xmlns:xlink="http://www.w3.org/1999/xlink" version="1.1" id="Capa_1" x="0px" y="0px" width="512px" height="512px" viewBox="0 0 612.029 612.029" style="enable-background:new 0 0 612.029 612.029;" xml:space="preserve">
<g>
	<g>
		<g>
			<g>
				<g>
					<path d="M376.113,403.018c-2.543,0.658-8.287,1.201-12.745,1.201h-9.002c-4.458,0-9.344-0.4-10.858-0.887       s-5.259-6.916-6.944-11.031l-10.517-25.348c-1.715-4.113-6.744-7.486-11.202-7.486h-65.269c-4.458,0-9.516,3.373-11.231,7.459       l-10.688,25.434c-1.715,4.115-3.972,8.459-5.001,9.658c-1.029,1.201-8.373,2.201-12.831,2.201h-8.23       c-4.458,0-10.202-0.543-12.774-1.201c0,0,0,0-1.314-2.029c-1.314-2.057-1.314-2.057-1.314-2.057       c0.429-2.629,2.229-8.088,4.029-12.174l73.728-167.289c1.8-4.058,4.115-8.344,5.115-9.516c1-1.172,8.316-2.115,12.774-2.115       h4.115c4.458,0,9.316,0.4,10.831,0.857c1.515,0.458,5.258,6.858,7.001,10.945l71.071,167.173       c1.743,4.088,3.486,9.574,3.886,12.174c0,0,0,0-1.314,2C376.113,403.018,376.113,403.018,376.113,403.018z M347.966,382.443       c1.714,4.115,5.258,7.486,7.915,7.486c2.658,0,3.401-3.344,1.657-7.459l-65.012-152.885c-1.743-4.086-5.629-7.458-8.63-7.458       c-3.001,0-6.944,3.315-8.745,7.401L207.71,382.5c-1.8,4.086-1.286,7.4,1.115,7.4s5.772-3.371,7.516-7.457L227,357.037       c1.714-4.113,3.972-8.457,5.001-9.658c1.029-1.199,8.373-2.201,12.831-2.201h74.843c4.458,0,9.344,0.4,10.858,0.887       s5.259,6.916,6.944,11.031L347.966,382.443z M324.104,338.234c-2.515,0.658-8.229,1.172-12.688,1.172h-58.097       c-4.458,0-10.173-0.543-12.746-1.201c0,0,0,0-1.314-2s-1.314-2-1.314-2c0.372-2.6,2.115-8.088,3.858-12.203l31.492-74.556       c1.743-4.115,3.972-8.459,5.001-9.659s4.858-2.172,5.001-2.172c0.143,0,1.514,0.4,3.029,0.886       c1.515,0.485,5.172,6.973,6.858,11.116l29.948,74.47c1.658,4.145,3.287,9.631,3.63,12.232c0,0,0,0-1.314,1.971       C324.133,338.264,324.104,338.234,324.104,338.234z M259.12,317.66c-1.743,4.113,0.486,7.457,4.944,7.457h36.778       c4.458,0,6.744-3.371,5.086-7.516l-19.804-49.208c-1.657-4.144-4.429-4.172-6.172-0.057L259.12,317.66z" fill="#B0AEB0"/>
				</g>
				<g>
					<path d="M417.464,402.617c-1.972,0.887-7.229,1.602-11.659,1.602h-3.857c-4.458,0-9.717-0.715-11.66-1.602       c-1.942-0.885-3.571-9.201-3.571-13.658V284.796c0-4.458,0.714-9.716,1.6-11.659c0.886-1.943,9.202-3.572,13.66-3.572h3.829       c4.458,0,9.716,0.714,11.659,1.6c1.943,0.886,3.572,9.202,3.572,13.66v104.162       C421.036,393.416,419.436,401.732,417.464,402.617z M400.976,381.814c0,4.457,1.285,8.086,2.886,8.086s2.887-3.656,2.887-8.086       V291.94c0-4.458-1.286-8.087-2.887-8.087s-2.886,3.658-2.886,8.087V381.814z M411.863,249.961       c-4.372,0.829-11.545,0.829-15.918,0c0,0-3.629-0.686-7.658-4.772c-4.029-4.029-6.173-9.402-6.173-15.546       c0-5.858,2.115-11.002,6.259-15.289c8.315-8.573,22.747-8.573,31.062,0c4.173,4.287,6.259,9.431,6.259,15.289       c0,6.144-2.144,11.517-6.201,15.575C415.406,249.304,411.863,249.961,411.863,249.961z M407.69,222.784       c-2.086-0.372-5.515-0.372-7.602,0c0,0,0,0-1.485,1.543c-1.543,1.572-2.229,3.229-2.229,5.315c0,3.086,1.144,4.601,2.001,5.458       c0.942,0.972,2.4,2.029,5.486,2.029c2.372,0,4.087-0.629,5.487-2.029c0.856-0.857,2-2.372,2-5.458       c0-2.086-0.686-3.743-2.229-5.315C407.69,222.784,407.69,222.784,407.69,222.784z" fill="#B0AEB0"/>
				</g>
			</g>
		</g>
		<path d="M306.015,612.029c-168.717,0-306-137.283-306-306.001C0.015,137.283,137.297,0,306.015,0    c168.717,0,306,137.283,306,306.028C612.015,474.746,474.731,612.029,306.015,612.029z M306.015,28.577    c-152.971,0-277.423,124.452-277.423,277.452c0,152.972,124.452,277.423,277.423,277.423    c152.972,0,277.423-124.451,277.423-277.423C583.438,153.028,458.986,28.577,306.015,28.577z" fill="#B0AEB0"/>
	</g>
</g>
<g>
</g>
<g>
</g>
<g>
</g>
<g>
</g>
<g>
</g>
<g>
</g>
<g>
</g>
<g>
</g>
<g>
</g>
<g>
</g>
<g>
</g>
<g>
</g>
<g>
</g>
<g>
</g>
<g>
</g>
</svg>
